<?xml version="1.0" encoding="UTF-8" standalone="no"?>
<!-- Created with Inkscape (http://www.inkscape.org/) -->

<svg
   xmlns:dc="http://purl.org/dc/elements/1.1/"
   xmlns:cc="http://creativecommons.org/ns#"
   xmlns:rdf="http://www.w3.org/1999/02/22-rdf-syntax-ns#"
   xmlns:svg="http://www.w3.org/2000/svg"
   xmlns="http://www.w3.org/2000/svg"
   xmlns:sodipodi="http://sodipodi.sourceforge.net/DTD/sodipodi-0.dtd"
   xmlns:inkscape="http://www.inkscape.org/namespaces/inkscape"
   width="210mm"
   height="297mm"
   viewBox="0 0 210 297"
   version="1.1"
   id="svg8"
   inkscape:version="0.92.1 r15371"
   sodipodi:docname="Logo1.svg"
   inkscape:export-filename="D:\Projects\Gingr\gingr_repo\Working Docs\favicon.png"
   inkscape:export-xdpi="96.000366"
   inkscape:export-ydpi="96.000366">
  <defs
     id="defs2">
    <inkscape:path-effect
       effect="spiro"
       id="path-effect64"
       is_visible="true" />
    <inkscape:path-effect
       effect="spiro"
       id="path-effect60"
       is_visible="true" />
    <inkscape:path-effect
       effect="spiro"
       id="path-effect56"
       is_visible="true" />
    <inkscape:path-effect
       effect="spiro"
       id="path-effect52"
       is_visible="true" />
    <inkscape:path-effect
       effect="spiro"
       id="path-effect48"
       is_visible="true" />
    <inkscape:path-effect
       effect="spiro"
       id="path-effect44"
       is_visible="true" />
    <inkscape:path-effect
       effect="spiro"
       id="path-effect40"
       is_visible="true" />
    <inkscape:path-effect
       effect="spiro"
       id="path-effect36"
       is_visible="true" />
    <inkscape:path-effect
       effect="spiro"
       id="path-effect32"
       is_visible="true" />
    <inkscape:path-effect
       effect="spiro"
       id="path-effect28"
       is_visible="true" />
    <inkscape:path-effect
       effect="spiro"
       id="path-effect24"
       is_visible="true" />
    <inkscape:path-effect
       effect="spiro"
       id="path-effect20"
       is_visible="true" />
  </defs>
  <sodipodi:namedview
     id="base"
     pagecolor="#ffffff"
     bordercolor="#666666"
     borderopacity="1.0"
     inkscape:pageopacity="0"
     inkscape:pageshadow="2"
     inkscape:zoom="64"
     inkscape:cx="527.95933"
     inkscape:cy="793.78348"
     inkscape:document-units="mm"
     inkscape:current-layer="layer1"
     showgrid="false"
     inkscape:window-width="1920"
     inkscape:window-height="1001"
     inkscape:window-x="-9"
     inkscape:window-y="-9"
     inkscape:window-maximized="1"
     inkscape:pagecheckerboard="false"
     showborder="true" />
  <metadata
     id="metadata5">
    <rdf:RDF>
      <cc:Work
         rdf:about="">
        <dc:format>image/svg+xml</dc:format>
        <dc:type
           rdf:resource="http://purl.org/dc/dcmitype/StillImage" />
        <dc:title />
      </cc:Work>
    </rdf:RDF>
  </metadata>
  <g
     inkscape:label="Layer 1"
     inkscape:groupmode="layer"
     id="layer1"
     style="display:inline">
    <text
       xml:space="preserve"
       style="font-style:normal;font-weight:normal;font-size:10.58333302px;line-height:1.25;font-family:sans-serif;letter-spacing:0px;word-spacing:0px;fill:#000000;fill-opacity:1;stroke:none;stroke-width:0.26458332"
       x="0.52916664"
       y="72.633331"
       id="text16"><tspan
         sodipodi:role="line"
         id="tspan14"
         x="0.52916664"
         y="82.288826"
         style="stroke-width:0.26458332" /></text>
    <g
       id="g4567"
       transform="matrix(0.08144165,0,0,0.08144165,128.3888,80.002275)">
      <g
         aria-label="Gingr"
         style="font-style:normal;font-variant:normal;font-weight:normal;font-stretch:normal;font-size:10.58333302px;line-height:1.25;font-family:'Franklin Gothic Demi Cond';-inkscape-font-specification:'Franklin Gothic Demi Cond';letter-spacing:0px;word-spacing:0px;fill:#ff6400;fill-opacity:1;stroke:none;stroke-width:0.26458332;stroke-opacity:1"
         id="text12" />
      <path
         id="path18"
         style="fill:#ff6600;fill-opacity:1;stroke:#ff6400;stroke-width:0.26499999;stroke-linecap:butt;stroke-linejoin:miter;stroke-miterlimit:4;stroke-dasharray:none;stroke-opacity:1"
         d="m 123.42812,82.957065 c 0.67566,-2.209786 0.48259,-4.672799 -0.52916,-6.750308 -0.56827,-1.166873 -1.38556,-2.21172 -2.38125,-3.044257 1.4022,-0.506761 2.99668,-0.458443 4.36562,0.132292 1.07857,0.465432 2.01272,1.259462 2.64584,2.248958 0.76633,-2.049267 0.73119,-4.386516 -0.0964,-6.411819 -0.76882,-1.88148 -2.21134,-3.479428 -4.00461,-4.436097 2.24709,-0.181291 4.55271,0.491181 6.35,1.852083 1.51168,1.144643 2.65858,2.763793 3.23682,4.569627 -0.32624,-2.342518 0.17429,-4.791859 1.39339,-6.818585 1.41877,-2.358662 3.80739,-4.113573 6.48229,-4.7625 -1.10179,1.633558 -1.87155,3.490045 -2.24896,5.423958 -0.54197,2.777175 -0.26271,5.709431 0.79375,8.334375 1.03888,-0.863327 1.82799,-2.023785 2.24896,-3.307292 0.57217,-1.744511 0.44641,-3.70738 -0.3437,-5.364613 1.1481,0.765818 2.09069,1.836703 2.70459,3.072716 0.61391,1.236013 0.89764,2.634144 0.81411,4.011689 -0.11042,1.821003 -0.87187,3.595803 -2.11543,4.930646 1.31726,-1.542037 3.19849,-2.591283 5.20265,-2.901761 2.35435,-0.364727 4.85067,0.30851 6.70237,1.807573 -1.06188,-0.16221 -2.16438,-0.05089 -3.1724,0.320314 -1.00802,0.371206 -1.9194,1.001507 -2.62247,1.813662 -0.99364,1.147813 -1.52092,1.869869 -2.34519,4.188137 -0.84256,3.763947 -4.54902,1.359593 -7.23174,1.983825 -5.69309,1.324706 -11.42888,2.465948 -17.19545,3.42136 l 1.34641,-4.313983 z m 23.84203,14.825864 c 0,4.712891 -0.99219,8.094591 -2.97656,10.145121 -2.05052,2.10013 -5.45703,3.15019 -10.21953,3.15019 -1.38906,0 -3.28248,-0.22324 -5.68027,-0.66973 -3.05925,-0.56224 -4.58887,-1.2237 -4.58887,-1.98437 0,-0.31419 0.35553,-1.93477 1.0666,-4.86172 0.11575,-0.46302 0.29765,-0.69453 0.5457,-0.69453 0.0827,0.0165 0.17364,0.0496 0.27286,0.0992 2.54661,1.25677 4.90306,1.88515 7.06933,1.88515 1.19063,0 2.37298,-0.29765 3.54707,-0.89296 1.42214,-0.71107 2.13321,-1.60404 2.13321,-2.67891 v -1.661915 c -1.68672,1.587505 -3.853,2.381255 -6.49883,2.381255 -3.10885,0 -5.66374,-1.11621 -7.66465,-3.348637 -1.93477,-2.14974 -2.90215,-4.795573 -2.90215,-7.9375 0,-3.158464 0.92604,-5.779493 2.77813,-7.863086 1.93476,-2.166276 4.46484,-3.249414 7.59023,-3.249414 2.49701,0 4.40697,0.892969 5.72988,2.678906 0.26459,0.363802 0.44649,0.545703 0.54571,0.545703 0.14883,0 0.22324,-0.297656 0.22324,-0.892969 0,-1.322916 0.14883,-1.984374 0.44648,-1.984374 0.26459,0 1.69499,0.14056 4.29121,0.421679 2.59623,0.264583 2.88229,0.716741 2.98151,0.749814 0.28112,0.09922 1.11999,-1.799733 0.54849,0.746031 -0.38345,1.708085 -0.34509,3.172877 -0.0486,4.57894 0.46469,2.189662 0.47399,2.596733 0.68873,4.413957 0.13475,1.140303 0.151,2.374192 0.1678,3.730181 0.0165,1.355989 -0.0467,2.515973 -0.0467,3.193968 z m -8.58242,-6.870899 c 0,-1.207161 -0.40514,-2.248958 -1.21543,-3.12539 -0.79375,-0.892969 -1.7942,-1.339453 -3.00136,-1.339453 -1.20717,0 -2.21589,0.454752 -3.02618,1.364257 -0.79375,0.892969 -1.19062,1.943034 -1.19062,3.150196 0,1.207161 0.40514,2.248958 1.21543,3.12539 0.82682,0.876433 1.82728,1.314649 3.00137,1.314649 1.20716,0 2.20761,-0.446485 3.00136,-1.339454 0.81029,-0.892969 1.21543,-1.943034 1.21543,-3.150195 z"
         inkscape:connector-curvature="0"
         sodipodi:nodetypes="cscscsccccccccccscsccccscccccscscccscscscscscsssccscssccscscscscs" />
    </g>
    <path
       style="fill:none;fill-opacity:1;stroke-width:0.0050346"
       d="m 138.44098,86.758435 c 0.002,-0.0048 0.011,-0.03854 0.0204,-0.07488 0.0484,-0.187624 0.0267,-0.381827 -0.0613,-0.551166 -0.032,-0.06179 -0.0836,-0.133197 -0.13059,-0.18088 -0.0177,-0.01807 -0.0322,-0.03429 -0.0322,-0.03605 0,-0.0018 0.0218,-0.0071 0.0485,-0.01192 0.1819,-0.03277 0.37132,0.04809 0.4736,0.202149 0.0101,0.01502 0.0191,0.02644 0.0201,0.02537 0.005,-0.0051 0.0315,-0.09082 0.04,-0.1291 0.0133,-0.0614 0.0134,-0.235558 4e-5,-0.296779 -0.0307,-0.139854 -0.0971,-0.263834 -0.19456,-0.363106 -0.0235,-0.02399 -0.062,-0.05775 -0.0855,-0.07503 -0.0235,-0.01727 -0.0438,-0.03263 -0.0453,-0.03409 -0.005,-0.0058 0.10486,0.0044 0.1514,0.01389 0.19918,0.04059 0.37097,0.156996 0.47911,0.32466 0.0278,0.04302 0.0591,0.105033 0.0743,0.147262 0.0109,0.0301 0.0166,0.03577 0.0277,0.02761 0.004,-0.0023 0.004,-0.04673 0.004,-0.114461 1.9e-4,-0.09539 0.002,-0.118016 0.0115,-0.163019 0.0574,-0.265529 0.21133,-0.467725 0.44804,-0.588897 0.0459,-0.02355 0.13676,-0.05889 0.13676,-0.05325 0,0.0014 -0.0101,0.0201 -0.0223,0.04148 -0.0696,0.120862 -0.11732,0.255282 -0.14477,0.408742 -0.01,0.05417 -0.0112,0.08083 -0.0112,0.191318 -1.2e-4,0.13007 0.005,0.181781 0.0253,0.271657 0.0176,0.07709 0.059,0.201596 0.0672,0.201596 0.002,0 0.0208,-0.01671 0.0419,-0.03711 0.0947,-0.09167 0.15539,-0.205691 0.17776,-0.333989 0.0147,-0.08438 0.007,-0.198383 -0.0174,-0.278574 -0.005,-0.01764 -0.009,-0.03287 -0.008,-0.03382 8.1e-4,-9.95e-4 0.0233,0.01991 0.0498,0.04636 0.0937,0.09376 0.15177,0.202556 0.17812,0.334138 0.012,0.06013 0.0118,0.174611 -5.5e-4,0.232305 -0.0231,0.108608 -0.074,0.214853 -0.13881,0.289585 -0.023,0.02667 -0.0236,0.02831 -0.011,0.03616 0.008,0.0049 0.0154,-2.9e-4 0.0553,-0.03868 0.12146,-0.117043 0.2747,-0.184362 0.44186,-0.19412 0.12725,-0.0075 0.27426,0.02961 0.3865,0.09738 l 0.0395,0.02386 -0.0496,0.0036 c -0.0871,0.0063 -0.16767,0.0293 -0.24111,0.06892 -0.12827,0.06917 -0.22547,0.189279 -0.26614,0.328855 l -0.0121,0.0417 -0.0193,-9.96e-4 c -0.0105,-5.29e-4 -0.14845,-0.01453 -0.30629,-0.03111 -0.38376,-0.04032 -0.36157,-0.0386 -0.3715,-0.02869 -0.0139,0.01393 -0.0191,0.04241 -0.0231,0.126272 -0.004,0.08547 -0.0101,0.109052 -0.024,0.09735 -0.004,-0.0036 -0.026,-0.02874 -0.0483,-0.056 -0.087,-0.106291 -0.19495,-0.168738 -0.3325,-0.192168 -0.0567,-0.0097 -0.18053,-0.01108 -0.24839,-0.0029 -0.20777,0.02525 -0.39622,0.129058 -0.5203,0.286577 -0.0325,0.04136 -0.0391,0.04764 -0.0329,0.0319 z"
       id="path4562"
       inkscape:connector-curvature="0" />
  </g>
</svg>
