<?xml version="1.0" encoding="UTF-8" standalone="no"?>
<!-- Created with Inkscape (http://www.inkscape.org/) -->

<svg
   xmlns:dc="http://purl.org/dc/elements/1.1/"
   xmlns:cc="http://creativecommons.org/ns#"
   xmlns:rdf="http://www.w3.org/1999/02/22-rdf-syntax-ns#"
   xmlns:svg="http://www.w3.org/2000/svg"
   xmlns="http://www.w3.org/2000/svg"
   xmlns:sodipodi="http://sodipodi.sourceforge.net/DTD/sodipodi-0.dtd"
   xmlns:inkscape="http://www.inkscape.org/namespaces/inkscape"
   width="210mm"
   height="297mm"
   viewBox="0 0 210 297"
   version="1.1"
   id="svg8"
   inkscape:version="0.92.1 r15371"
   sodipodi:docname="Logo1.svg">
  <defs
     id="defs2">
    <inkscape:path-effect
       effect="spiro"
       id="path-effect64"
       is_visible="true" />
    <inkscape:path-effect
       effect="spiro"
       id="path-effect60"
       is_visible="true" />
    <inkscape:path-effect
       effect="spiro"
       id="path-effect56"
       is_visible="true" />
    <inkscape:path-effect
       effect="spiro"
       id="path-effect52"
       is_visible="true" />
    <inkscape:path-effect
       effect="spiro"
       id="path-effect48"
       is_visible="true" />
    <inkscape:path-effect
       effect="spiro"
       id="path-effect44"
       is_visible="true" />
    <inkscape:path-effect
       effect="spiro"
       id="path-effect40"
       is_visible="true" />
    <inkscape:path-effect
       effect="spiro"
       id="path-effect36"
       is_visible="true" />
    <inkscape:path-effect
       effect="spiro"
       id="path-effect32"
       is_visible="true" />
    <inkscape:path-effect
       effect="spiro"
       id="path-effect28"
       is_visible="true" />
    <inkscape:path-effect
       effect="spiro"
       id="path-effect24"
       is_visible="true" />
    <inkscape:path-effect
       effect="spiro"
       id="path-effect20"
       is_visible="true" />
  </defs>
  <sodipodi:namedview
     id="base"
     pagecolor="#ffffff"
     bordercolor="#666666"
     borderopacity="1.0"
     inkscape:pageopacity="0.0"
     inkscape:pageshadow="2"
     inkscape:zoom="1.0040916"
     inkscape:cx="239.54075"
     inkscape:cy="789.56743"
     inkscape:document-units="mm"
     inkscape:current-layer="layer1"
     showgrid="false"
     inkscape:window-width="1920"
     inkscape:window-height="1001"
     inkscape:window-x="-9"
     inkscape:window-y="-9"
     inkscape:window-maximized="1" />
  <metadata
     id="metadata5">
    <rdf:RDF>
      <cc:Work
         rdf:about="">
        <dc:format>image/svg+xml</dc:format>
        <dc:type
           rdf:resource="http://purl.org/dc/dcmitype/StillImage" />
        <dc:title></dc:title>
      </cc:Work>
    </rdf:RDF>
  </metadata>
  <g
     inkscape:label="Layer 1"
     inkscape:groupmode="layer"
     id="layer1">
    <text
       xml:space="preserve"
       style="font-style:normal;font-weight:normal;font-size:10.58333302px;line-height:1.25;font-family:sans-serif;letter-spacing:0px;word-spacing:0px;fill:#000000;fill-opacity:1;stroke:none;stroke-width:0.26458332"
       x="0.52916664"
       y="72.633331"
       id="text16"><tspan
         sodipodi:role="line"
         id="tspan14"
         x="0.52916664"
         y="82.288826"
         style="stroke-width:0.26458332" /></text>
    <g
       id="g4567"
       transform="translate(-0.00910087,0.6183002)">
      <g
         aria-label="Gingr"
         style="font-style:normal;font-variant:normal;font-weight:normal;font-stretch:normal;font-size:10.58333302px;line-height:1.25;font-family:'Franklin Gothic Demi Cond';-inkscape-font-specification:'Franklin Gothic Demi Cond';letter-spacing:0px;word-spacing:0px;fill:#ff6400;fill-opacity:1;stroke:none;stroke-width:0.26458332;stroke-opacity:1"
         id="text12">
        <path
           d="m 76.502381,103.4384 q 0.04961,0.66972 -0.694532,0.66972 -0.471289,0 -2.728515,-0.5457 -2.232422,-0.5457 -2.75332,-0.74414 -5.18418,2.03398 -9.94668,2.03398 -7.664648,0 -12.575976,-5.109761 -4.861719,-5.035352 -4.861719,-12.724805 0,-7.863085 4.71289,-13.047265 4.861719,-5.357812 12.625586,-5.357812 3.770313,0 7.094141,1.438671 3.596679,1.5875 5.655468,4.464844 0.42168,0.595313 0.42168,0.843359 0,0.79375 -2.232422,3.571875 -2.207617,2.753321 -2.852539,2.753321 -0.148828,0 -1.141015,-1.016993 -1.21543,-1.215429 -2.480469,-1.885156 -1.885156,-1.016992 -4.167188,-1.016992 -3.720703,0 -5.903515,2.778125 -2.033984,2.554883 -2.033984,6.374805 0,4.043164 2.108398,6.399609 2.182812,2.430859 6.176367,2.430859 2.530078,0 5.655469,-1.265039 -0.07441,-0.818554 -0.446485,-4.167187 -0.322461,-2.579688 -0.322461,-4.167188 0,-0.471289 0.322461,-0.570508 0.124024,-0.04961 0.396875,-0.04961 0.719336,0 2.158008,0.148828 1.463477,0.124024 2.207617,0.124024 0.79375,0 2.38125,-0.09922 1.5875,-0.124024 2.38125,-0.124024 0.620117,0 0.620117,0.818555 0,1.190625 -0.148828,3.59668 -0.124023,2.406054 -0.124023,3.596679 0,3.199805 0.471289,9.574614 z"
           style="font-style:normal;font-variant:normal;font-weight:normal;font-stretch:normal;font-size:50.79999924px;line-height:1.25;font-family:'Berlin Sans FB Demi';-inkscape-font-specification:'Berlin Sans FB Demi';fill:#ff6400;fill-opacity:1;stroke:none;stroke-width:0.26458332;stroke-opacity:1"
           id="path4580" />
        <path
           d="m 89.624059,74.416913 q 0,4.316016 -4.861719,4.316016 -2.083593,0 -3.447851,-1.091406 -1.488281,-1.190625 -1.488281,-3.22461 0,-1.934765 1.53789,-3.175 1.413867,-1.141015 3.398242,-1.141015 1.934766,0 3.348633,1.16582 1.513086,1.240234 1.513086,3.150195 z m -0.644922,18.429883 q 0,1.810742 0.07441,5.407422 0.07441,3.571872 0.07441,5.357812 0,0.5209 -0.620117,0.62012 -0.843359,0.14883 -3.795117,0.14883 -2.976562,0 -3.819922,-0.14883 -0.545703,-0.0992 -0.669726,-0.32246 -0.04961,-0.0992 -0.04961,-0.74414 0,-1.71153 0.07441,-5.134575 0.07441,-3.447851 0.07441,-5.184179 0,-7.044531 -0.545703,-11.211719 -0.04961,-0.396875 -0.04961,-0.520898 0,-0.496094 0.669727,-0.496094 0.694531,0 2.108398,0.148828 1.438672,0.148828 2.158008,0.148828 0.719336,0 2.158007,-0.124023 1.438672,-0.124024 2.158008,-0.124024 0.595313,0 0.595313,0.496094 0,0.09922 -0.04961,0.471289 -0.545703,4.836914 -0.545703,11.211719 z"
           style="font-style:normal;font-variant:normal;font-weight:normal;font-stretch:normal;font-size:50.79999924px;line-height:1.25;font-family:'Berlin Sans FB Demi';-inkscape-font-specification:'Berlin Sans FB Demi';fill:#ff6400;fill-opacity:1;stroke:none;stroke-width:0.26458332;stroke-opacity:1"
           id="path4582" />
        <path
           d="m 118.44711,103.51281 q 0,0.66973 -0.69453,0.76895 -0.69454,0.0992 -3.62149,0.0992 -3.12539,0 -3.86953,-0.14883 -0.74414,-0.14883 -0.74414,-1.01699 0,-1.16583 0.0744,-3.522271 0.0744,-2.356445 0.0744,-3.54707 0,-0.917773 -0.0496,-2.728515 -0.0496,-1.835547 -0.0496,-2.753321 0,-3.398242 -2.95176,-3.398242 -0.96738,0 -2.25722,0.84336 -1.38907,0.942578 -1.38907,1.860351 v 13.394528 q 0,0.81856 -0.76894,0.91778 -0.86817,0.0992 -3.547073,0.0992 -2.902148,0 -3.770312,-0.14883 -0.768946,-0.12403 -0.768946,-0.81856 0,-1.93476 0.02481,-5.829099 0.02481,-3.894336 0.02481,-5.853906 0,-6.176367 -0.967383,-9.698633 -0.04961,-0.223242 -0.04961,-0.37207 0,-0.396875 0.372071,-0.545703 1.562695,-0.173633 4.167187,-0.545703 3.943946,-0.768946 4.440036,-0.768946 0.27285,0 0.42168,1.686719 0.14883,1.661914 0.42168,1.661914 -0.27285,0 2.6541,-1.711523 2.95176,-1.736328 5.15938,-1.736328 3.15019,0 5.25859,1.488281 2.35645,1.711523 2.35645,4.7625 v 7.912695 q 0,1.612305 0.0248,4.836914 0.0248,3.199808 0.0248,4.812108 z"
           style="font-style:normal;font-variant:normal;font-weight:normal;font-stretch:normal;font-size:50.79999924px;line-height:1.25;font-family:'Berlin Sans FB Demi';-inkscape-font-specification:'Berlin Sans FB Demi';fill:#ff6400;fill-opacity:1;stroke:none;stroke-width:0.26458332;stroke-opacity:1"
           id="path4584" />
        <path
           d="m 147.27015,97.782929 q 0,7.069331 -2.97656,10.145121 -3.07578,3.15019 -10.21953,3.15019 -2.08359,0 -5.68027,-0.66973 -4.58887,-0.84336 -4.58887,-1.98437 0,-0.47129 1.0666,-4.86172 0.17363,-0.69453 0.5457,-0.69453 0.12403,0.0248 0.27286,0.0992 3.81992,1.88515 7.06933,1.88515 1.78594,0 3.54707,-0.89296 2.13321,-1.06661 2.13321,-2.67891 v -1.661915 q -2.53008,2.381255 -6.49883,2.381255 -4.66328,0 -7.66465,-3.348637 -2.90215,-3.22461 -2.90215,-7.9375 0,-4.737696 2.77813,-7.863086 2.90214,-3.249414 7.59023,-3.249414 3.74551,0 5.72988,2.678906 0.39688,0.545703 0.54571,0.545703 0.22324,0 0.22324,-0.892969 0,-1.984374 0.44648,-1.984374 0.39688,0 4.29121,0.421679 3.89434,0.396875 4.04317,0.446485 0.42168,0.148828 0.42168,0.644921 0,1.711524 -0.12403,5.109766 -0.0992,3.398242 -0.0992,5.109766 0,1.016992 0.0248,3.050976 0.0248,2.033984 0.0248,3.050977 z m -8.58242,-6.870899 q 0,-1.810742 -1.21543,-3.12539 -1.19062,-1.339453 -3.00136,-1.339453 -1.81075,0 -3.02618,1.364257 -1.19062,1.339453 -1.19062,3.150196 0,1.810742 1.21543,3.12539 1.24023,1.314649 3.00137,1.314649 1.81074,0 3.00136,-1.339454 1.21543,-1.339453 1.21543,-3.150195 z"
           style="font-style:normal;font-variant:normal;font-weight:normal;font-stretch:normal;font-size:50.79999924px;line-height:1.25;font-family:'Berlin Sans FB Demi';-inkscape-font-specification:'Berlin Sans FB Demi';fill:#ff6400;fill-opacity:1;stroke:none;stroke-width:0.26458332;stroke-opacity:1"
           id="path4586" />
        <path
           d="m 167.98206,88.778827 q 0,0.967383 -1.0666,0.967383 -0.47129,0 -1.38906,-0.04961 -0.89297,-0.07442 -1.33945,-0.07442 -2.05879,0 -2.80293,0.644922 -0.74414,0.644922 -0.74414,2.604493 0,1.066601 0.0248,3.249414 0.0496,2.158007 0.0496,3.224609 0,0.719336 0.0992,2.158006 0.0992,1.41387 0.0992,2.1084 0,0.59531 -0.81856,0.66973 -1.19062,0.0992 -3.64629,0.0992 -2.35644,0 -3.77031,-0.14883 -0.81855,-0.0992 -0.81855,-0.81856 0,-1.98437 0.0248,-5.928318 0.0248,-3.96875 0.0248,-5.953125 0,-5.829101 -1.06661,-9.599414 -0.0496,-0.223242 -0.0496,-0.37207 0,-0.37207 0.37207,-0.496094 1.36425,-0.148828 3.99355,-0.545703 3.91914,-0.768945 4.04316,-0.768945 0.44649,0 0.57051,1.562695 0.12403,1.562696 0.44649,1.562696 -0.34727,0 2.03398,-1.289844 2.38125,-1.314649 4.58887,-1.314649 1.38906,0 1.38906,0.595313 0,0.719336 -0.14883,2.033984 -0.14883,1.413867 -0.17363,2.033985 0,0.719336 0.0248,1.909961 0.0496,1.463476 0.0496,1.934765 z"
           style="font-style:normal;font-variant:normal;font-weight:normal;font-stretch:normal;font-size:50.79999924px;line-height:1.25;font-family:'Berlin Sans FB Demi';-inkscape-font-specification:'Berlin Sans FB Demi';fill:#ff6400;fill-opacity:1;stroke:none;stroke-width:0.26458332;stroke-opacity:1"
           id="path4588" />
      </g>
      <path
         style="fill:#ff6600;fill-opacity:1;stroke:#ff6400;stroke-width:0.26499999;stroke-linecap:butt;stroke-linejoin:miter;stroke-miterlimit:4;stroke-dasharray:none;stroke-opacity:1"
         d="m 123.42812,82.957065 c 0.67566,-2.209786 0.48259,-4.672799 -0.52916,-6.750308 -0.56827,-1.166873 -1.38556,-2.21172 -2.38125,-3.044257 1.4022,-0.506761 2.99668,-0.458443 4.36562,0.132292 1.07857,0.465432 2.01272,1.259462 2.64584,2.248958 0.76633,-2.049267 0.73119,-4.386516 -0.0964,-6.411819 -0.76882,-1.88148 -2.21134,-3.479428 -4.00461,-4.436097 2.24709,-0.181291 4.55271,0.491181 6.35,1.852083 1.51168,1.144643 2.65858,2.763793 3.23682,4.569627 -0.32624,-2.342518 0.17429,-4.791859 1.39339,-6.818585 1.41877,-2.358662 3.80739,-4.113573 6.48229,-4.7625 -1.10179,1.633558 -1.87155,3.490045 -2.24896,5.423958 -0.54197,2.777175 -0.26271,5.709431 0.79375,8.334375 1.03888,-0.863327 1.82799,-2.023785 2.24896,-3.307292 0.57217,-1.744511 0.44641,-3.70738 -0.3437,-5.364613 1.1481,0.765818 2.09069,1.836703 2.70459,3.072716 0.61391,1.236013 0.89764,2.634144 0.81411,4.011689 -0.11042,1.821003 -0.87187,3.595803 -2.11543,4.930646 1.31726,-1.542037 3.19849,-2.591283 5.20265,-2.901761 2.35435,-0.364727 4.85067,0.30851 6.70237,1.807573 -1.06188,-0.16221 -2.16438,-0.05089 -3.1724,0.320314 -1.00802,0.371206 -1.9194,1.001507 -2.62247,1.813662 -0.99364,1.147813 -1.5575,2.659238 -1.55844,4.177391 -2.66253,0.70538 -5.33577,1.370339 -8.01849,1.994571 -5.69309,1.324706 -11.42888,2.465948 -17.19545,3.42136 l 1.34641,-4.313983 z"
         id="path18" />
    </g>
    <path
       style="fill:none;fill-opacity:1;stroke-width:0.23364486"
       d="m 466.4655,315.87541 c 0.0882,-0.22488 0.51538,-1.78848 0.94931,-3.47466 2.24075,-8.70727 1.23841,-17.71984 -2.84472,-25.57847 -1.48985,-2.86745 -3.8823,-6.18132 -6.0603,-8.39432 -0.82524,-0.8385 -1.50044,-1.59105 -1.50044,-1.67233 0,-0.0813 1.01234,-0.33005 2.24964,-0.55283 8.44217,-1.52005 17.23231,2.23182 21.97935,9.38138 0.46301,0.69735 0.88257,1.22718 0.93234,1.1774 0.2329,-0.23289 1.46685,-4.21543 1.85635,-5.99131 0.62504,-2.84976 0.62616,-10.93173 0.002,-13.77276 -1.42607,-6.49043 -4.50889,-12.24402 -9.0289,-16.85106 -1.09229,-1.11332 -2.87967,-2.68007 -3.97196,-3.48166 -1.09229,-0.80159 -2.03855,-1.5136 -2.10281,-1.58224 -0.24785,-0.26481 4.86597,0.2042 7.02594,0.64438 9.24348,1.8837 17.21542,7.28578 22.23419,15.06671 1.28756,1.99619 2.74094,4.87437 3.45098,6.83411 0.5062,1.39714 0.76936,1.65973 1.28422,1.28147 0.14288,-0.10497 0.23796,-2.16854 0.24475,-5.31184 0.01,-4.42657 0.084,-5.47687 0.5363,-7.56533 2.66861,-12.32267 9.80767,-21.70611 20.79267,-27.32947 2.13534,-1.09312 6.34684,-2.73272 6.34684,-2.47092 0,0.0666 -0.46816,0.93278 -1.04035,1.9248 -3.23521,5.6089 -5.44482,11.84706 -6.71893,18.96882 -0.44968,2.51356 -0.52318,3.75123 -0.52729,8.87864 -0.005,6.03627 0.2182,8.43602 1.17169,12.60703 0.81788,3.57781 2.74184,9.35559 3.11533,9.35559 0.0908,0 0.96573,-0.77503 1.94421,-1.72228 4.3946,-4.25433 7.21066,-9.54568 8.24896,-15.4997 0.68282,-3.9156 0.35344,-9.20651 -0.80481,-12.92799 -0.25486,-0.81887 -0.42719,-1.52504 -0.38296,-1.56928 0.0442,-0.0442 1.08473,0.92389 2.31222,2.15138 4.35135,4.35135 7.04272,9.40015 8.26613,15.5066 0.55895,2.78993 0.54626,8.10329 -0.0258,10.78078 -1.07679,5.04022 -3.44025,9.97083 -6.44191,13.43897 -1.07122,1.23771 -1.09458,1.31416 -0.51265,1.67758 0.36846,0.23012 0.71647,-0.0134 2.56533,-1.79485 5.63711,-5.43171 12.74819,-8.55578 20.50569,-9.00865 5.90549,-0.34475 12.72785,1.37402 17.937,4.51891 l 1.83429,1.1074 -2.3002,0.16562 c -4.04194,0.29102 -7.78159,1.35988 -11.18991,3.19831 -5.95239,3.21068 -10.46285,8.78406 -12.35091,15.26149 l -0.56412,1.93533 -0.89669,-0.0448 c -0.49318,-0.0246 -6.88969,-0.67445 -14.21445,-1.44403 -17.80958,-1.87116 -16.7796,-1.79166 -17.24056,-1.3307 -0.64617,0.64617 -0.88935,1.96857 -1.07759,5.86002 -0.19188,3.96674 -0.46245,5.06082 -1.11715,4.51746 -0.19837,-0.16463 -1.20666,-1.334 -2.24066,-2.5986 -4.03322,-4.93269 -9.04766,-7.83075 -15.43071,-8.91808 -2.63449,-0.44877 -8.37739,-0.51412 -11.52727,-0.13117 -9.64192,1.17221 -18.38757,5.98932 -24.14548,13.29937 -1.51202,1.9196 -1.81309,2.21153 -1.52611,1.47977 z"
       id="path4562"
       inkscape:connector-curvature="0"
       transform="scale(0.26458333)" />
  </g>
</svg>
